<svg width="17" height="23" viewBox="0 0 17 23" fill="none" xmlns="http://www.w3.org/2000/svg">
<path d="M3.75 22.5V20H0V17.5H2.5V5H0V2.5H3.75V0H6.25V2.5H8.75V0H11.25V2.65625C12.3333 2.94792 13.2292 3.53646 13.9375 4.42188C14.6458 5.30729 15 6.33333 15 7.5C15 8.10417 14.8958 8.68229 14.6875 9.23438C14.4792 9.78646 14.1875 10.2812 13.8125 10.7188C14.5417 11.1562 15.1302 11.75 15.5781 12.5C16.026 13.25 16.25 14.0833 16.25 15C16.25 16.375 15.7604 17.5521 14.7812 18.5312C13.8021 19.5104 12.625 20 11.25 20V22.5H8.75V20H6.25V22.5H3.75ZM5 10H10C10.6875 10 11.276 9.75521 11.7656 9.26562C12.2552 8.77604 12.5 8.1875 12.5 7.5C12.5 6.8125 12.2552 6.22396 11.7656 5.73438C11.276 5.24479 10.6875 5 10 5H5V10ZM5 17.5H11.25C11.9375 17.5 12.526 17.2552 13.0156 16.7656C13.5052 16.276 13.75 15.6875 13.75 15C13.75 14.3125 13.5052 13.724 13.0156 13.2344C12.526 12.7448 11.9375 12.5 11.25 12.5H5V17.5Z" fill="#135BEC"/>
</svg>
